<?xml version="1.0"?>
<svg xmlns="http://www.w3.org/2000/svg" xmlns:xlink="http://www.w3.org/1999/xlink" version="1.1" id="Layer_1" x="0px" y="0px" viewBox="0 0 511.942 511.942" style="enable-background:new 0 0 511.942 511.942;" xml:space="preserve" width="512px" height="512px" class=""><g transform="matrix(-1.19567 0 0 1.19567 613.095 -50.0856)"><path style="fill:#1F1F1F" d="M461.949,261.326l6.5-29.997l-73.992-32.996c0,0-3.5-11.999-3.5-14.499s-32.496-52.494-32.496-52.494  l-47.494-29.497l-15.998-12.499l-7.5-30.497l-20.497-4l-25.497,18.998l-22.997,11.999L17.343,78.847l52.15,379.948l202.477-67.492  l93.49-38.995l64.992-9.999l21.498-20.998l36.495-46.494L461.949,261.326z" data-original="#965353" class="active-path" data-old_color="#1f1f1f"/><polygon style="fill:#1F1F1F" points="471.198,234.86 471.198,262.186 486.197,268.185 501.195,246.828 " data-original="#656D78" class="" data-old_color="#1f1f1f"/><path d="M341.306,170.711c-5.905,0-10.686,4.781-10.686,10.655c0,5.905,4.78,10.686,10.686,10.686  c5.875,0,10.655-4.781,10.655-10.686C351.961,175.492,347.181,170.711,341.306,170.711z" data-original="#000000" class="" style="fill:#1F1F1F" data-old_color="#1f1f1f"/><path d="M506.194,237.954l-102.77-53.369l-5.577-17.154c-0.172-0.563-0.406-1.094-0.672-1.609  c-0.438-0.859-11.062-21.138-35.184-42.745c-13.592-12.17-33.324-26.263-59.712-36.699c1.14-9.437,1.312-23.435-5.39-33.184  c-4.016-5.843-9.953-9.437-17.139-10.374c-10.172-1.328-22.42,3.812-37.434,15.732c-5.843,4.64-10.874,9.327-14.092,12.483  l-49.869-4.265c-0.25-0.016-0.5-0.031-0.75-0.047L10.844,64.067c-3.156-0.063-6.155,1.281-8.218,3.656s-2.984,5.546-2.5,8.655  l60.259,383.948c0.469,3,2.203,5.656,4.734,7.281c1.749,1.156,3.765,1.719,5.812,1.719c0.922,0,1.859-0.094,2.781-0.344  c6.499-1.781,159.481-43.277,198.148-64.993c19.232-10.812,51.51-24.622,78.07-35.371c22.215-6.749,37.276-13.748,42.994-16.592  h37.918c2.719,0,5.328-1.031,7.312-2.905l33.996-31.997c0.047-0.031,0.078-0.094,0.125-0.125c0.094-0.094,0.172-0.188,0.266-0.25  c0.063-0.094,0.156-0.156,0.219-0.25l9.624-10.655c0.438-0.5,0.844-1.031,1.188-1.594l15.467-25.371  c0.25-0.438,0.484-0.844,0.672-1.281l11.326-25.912C513.302,246.547,511.177,240.532,506.194,237.954z M484.822,258.42l-7.797-2.422  l1.516-8.374l8.969,4.656L484.822,258.42z M277.001,63.973c1.313,0.156,1.797,0.563,2.313,1.297  c1.938,2.828,2.406,8.452,2.125,14.108c-7.656-2.125-15.78-3.938-24.357-5.296C270.798,63.536,276.392,63.88,277.001,63.973z   M426.609,330.686h-36.184c-0.281,0-0.563,0.031-0.844,0.031c-0.047,0-0.109,0-0.172,0.031c-0.187,0-0.374,0.031-0.562,0.063  c-0.141,0.031-0.281,0.031-0.422,0.063c-0.172,0.031-0.344,0.063-0.516,0.125c-0.156,0.031-0.313,0.063-0.469,0.094  c-0.156,0.063-0.313,0.094-0.469,0.156c-0.109,0.031-0.234,0.063-0.328,0.125c-1.624,0.594-20.091,7.498-43.276,16.873  c-24.388,7.373-58.024,14.436-97.238,14.436c-0.25,0-0.531,0-0.797,0c-5.859,0-10.671,4.75-10.702,10.654  c0,5.875,4.749,10.656,10.655,10.688c0.281,0,0.563,0,0.859,0c6.358,0,12.576-0.188,18.653-0.5c-1.171,0.625-2.296,1.25-3.39,1.874  c-30.544,17.154-144.983,49.62-181.792,59.837L23.171,85.596l153.732,2.469l65.914,5.624c15.17,1.609,29.559,4.718,43.151,9.296  c0.515,0.234,1.062,0.422,1.624,0.578c22.107,7.687,41.996,19.31,59.479,34.777c19.17,16.998,28.871,33.215,30.793,36.621  l6.609,20.373c0.858,2.656,2.749,4.874,5.232,6.171l69.023,35.84l-4.374,24.107c-0.968,5.312,2.172,10.498,7.312,12.084l13.14,4.125  l-8.921,14.623l-5.781,6.406h-64.617c-5.906,0-10.67,4.779-10.67,10.654c0,5.906,4.764,10.687,10.67,10.687h42.464L426.609,330.686z  " data-original="#000000" class="" style="fill:#1F1F1F" data-old_color="#1f1f1f"/></g> </svg>
